<?xml version="1.0" encoding="utf-8"?>
<!-- Generator: Adobe Illustrator 23.0.5, SVG Export Plug-In . SVG Version: 6.00 Build 0)  -->
<svg version="1.1" id="Layer_1" xmlns="http://www.w3.org/2000/svg" xmlns:xlink="http://www.w3.org/1999/xlink" x="0px" y="0px"
	 viewBox="0 0 145 50" enable-background="new 0 0 145 50" xml:space="preserve">
<g>
	<path fill-rule="evenodd" clip-rule="evenodd" fill="#FFFFFF" d="M95.4,46.8c-0.9,0-1.5-0.3-2-0.8c-0.1-0.1-0.3-0.2-0.5-0.2
		c-0.3,0-0.6,0.3-0.6,0.6c0,0.6,1.1,1.6,3.1,1.6c1.7,0,3.2-0.9,3.2-2.3c0-2.7-4.9-1.9-4.9-3.4c0-0.4,0.5-0.9,1.6-0.9
		c0.8,0,1.4,0.4,1.7,0.7c0.2,0.2,0.3,0.3,0.6,0.3c0.4,0,0.7-0.3,0.7-0.6c0-0.6-1-1.6-2.9-1.6c-1.8,0-3,1-3,2.2
		c0,2.8,4.8,1.8,4.8,3.4C97.2,46.4,96.5,46.8,95.4,46.8 M90.5,43.9c0-2.2-1.6-3.7-3.5-3.7c-1.1,0-2,0.4-2.8,1.5
		c-0.8-1-1.8-1.5-2.8-1.5c-2,0-3.6,1.5-3.6,3.7v3.4c0,0.4,0.3,0.7,0.7,0.7s0.7-0.3,0.7-0.7v-3.6c0-1.4,1-2.3,2.1-2.3
		c1.2,0,2.1,0.9,2.1,2.3v3.6c0,0.4,0.3,0.7,0.7,0.7c0.4,0,0.7-0.3,0.7-0.7v-3.6c0-1.4,1-2.3,2.1-2.3c1.2,0,2.1,0.9,2.1,2.3v3.6
		c0,0.4,0.3,0.7,0.7,0.7c0.4,0,0.7-0.3,0.7-0.7V43.9z M65.8,47.8c0.1,0.1,0.3,0.2,0.5,0.2c0.4,0,0.7-0.3,0.7-0.7
		c0-0.2-0.1-0.3-0.2-0.4L64.3,44l2.4-2.8c0.1-0.1,0.2-0.2,0.2-0.4c0-0.3-0.3-0.7-0.7-0.7c-0.2,0-0.4,0.1-0.5,0.2L63.5,43l-2.2-2.7
		c-0.1-0.1-0.3-0.2-0.5-0.2c-0.4,0-0.7,0.3-0.7,0.7c0,0.2,0.1,0.3,0.2,0.4l2.4,2.8l-2.5,2.9c-0.1,0.1-0.2,0.3-0.2,0.4
		c0,0.3,0.3,0.7,0.7,0.7c0.2,0,0.4-0.1,0.5-0.2l2.3-2.8L65.8,47.8z M55.3,41.3c1.3,0,2.3,1.1,2.4,2.2h-4.9
		C52.9,42.3,54,41.3,55.3,41.3z M58.2,44.7c0.5,0,0.9-0.5,0.9-0.9c0-1.8-1.6-3.6-3.7-3.6c-2.1,0-3.9,1.7-3.9,3.9c0,2.3,1.7,4,4,4
		c1.3,0,2.3-0.5,2.6-0.7c0.1-0.1,0.3-0.3,0.3-0.6c0-0.3-0.3-0.6-0.6-0.6c-0.2,0-0.3,0-0.4,0.1c-0.4,0.2-1.1,0.6-1.9,0.6
		c-1.3,0-2.4-0.8-2.6-2.1H58.2z M75.7,43.9c0-0.1,0,0.1,0,0.2c0-2.2-1.8-3.9-4-3.9c-2.2,0-3.9,1.7-3.9,3.9c0,2.2,1.7,3.9,3.9,3.9
		c1,0,1.8-0.3,2.5-0.9v0.2c0,0.4,0.4,0.7,0.7,0.7c0.4,0,0.7-0.3,0.7-0.7V43.9z M74.3,44.1c0,1.4-1.1,2.7-2.6,2.7
		c-1.5,0-2.6-1.3-2.6-2.7c0-1.4,1.2-2.7,2.6-2.7C73.2,41.4,74.3,42.6,74.3,44.1z"/>
	<path fill-rule="evenodd" clip-rule="evenodd" fill="#FFFFFF" d="M142.5,30.3c0,0.1,0,0.2,0,0.3c0-3.6-2.9-6.5-6.6-6.5
		c-3.7,0-6.6,2.9-6.6,6.5c0,3.6,2.8,6.6,6.6,6.6c1.6,0,3-0.6,4.2-1.5v5.5c0,0.7,0.6,1.2,1.2,1.2c0.7,0,1.2-0.5,1.2-1.2V30.3z
		 M140.2,30.6c0,2.4-1.9,4.5-4.3,4.5c-2.5,0-4.4-2.1-4.4-4.5c0-2.4,1.9-4.4,4.4-4.4C138.3,26.2,140.2,28.3,140.2,30.6z M71.9,30.1
		c0-3.6-2.5-6-5.7-6c-1.7,0-3.2,0.7-4.5,2.3c-1.3-1.7-2.9-2.3-4.5-2.3c-3.2,0-5.8,2.4-5.8,6v5.5c0,0.6,0.5,1.2,1.2,1.2
		c0.6,0,1.2-0.6,1.2-1.2v-5.8c0-2.3,1.5-3.7,3.4-3.7c1.9,0,3.4,1.4,3.4,3.7v5.8c0,0.6,0.5,1.2,1.2,1.2c0.6,0,1.1-0.6,1.1-1.2v-5.8
		c0-2.3,1.5-3.7,3.4-3.7s3.4,1.4,3.4,3.7v5.8c0,0.6,0.6,1.2,1.2,1.2c0.6,0,1.1-0.6,1.1-1.2V30.1z M87.3,30.4c0-3.5-2.9-6.3-6.4-6.3
		c-3.6,0-6.4,2.8-6.4,6.3c0,3.5,2.8,6.4,6.4,6.4C84.5,36.8,87.3,33.9,87.3,30.4z M85.1,30.4c0,2.3-1.8,4.4-4.2,4.4
		c-2.4,0-4.2-2-4.2-4.4c0-2.3,1.9-4.3,4.2-4.3C83.3,26.2,85.1,28.1,85.1,30.4z M92.3,29.3c0-1.7,1.2-3.1,2.9-3.1
		c0.9,0,1.5,0.4,1.9,0.7c0.2,0.2,0.5,0.2,0.8,0.2c0.5,0,1-0.5,1-1.1c0-0.3-0.1-0.6-0.4-0.9c-0.6-0.5-1.8-1.1-3.1-1.1
		c-3.3,0-5.4,2.3-5.4,5.5v6c0,0.6,0.5,1.2,1.2,1.2c0.6,0,1.2-0.6,1.2-1.2V29.3z M112.2,30.4c0-3.5-2.9-6.3-6.4-6.3
		c-3.6,0-6.4,2.8-6.4,6.3c0,3.5,2.8,6.4,6.4,6.4C109.4,36.8,112.2,33.9,112.2,30.4z M110,30.4c0,2.3-1.8,4.4-4.2,4.4
		c-2.4,0-4.2-2-4.2-4.4c0-2.3,1.9-4.3,4.2-4.3C108.2,26.2,110,28.1,110,30.4z M127.1,30.4c0-3.5-2.9-6.3-6.4-6.3
		c-3.6,0-6.4,2.8-6.4,6.3c0,3.5,2.8,6.4,6.4,6.4C124.3,36.8,127.1,33.9,127.1,30.4z M124.9,30.4c0,2.3-1.8,4.4-4.2,4.4
		c-2.4,0-4.2-2-4.2-4.4c0-2.3,1.9-4.3,4.2-4.3C123.1,26.2,124.9,28.1,124.9,30.4z"/>
	<path fill="#FFFFFF" d="M39,30.6c0-1.3-0.5-2.5-1.4-3.4c-0.9-0.9-2.1-1.4-3.4-1.4c-1.3,0-2.5,0.5-3.4,1.4c-0.9,0.9-1.4,2.1-1.4,3.4
		c0,1.3,0.5,2.5,1.4,3.4c0.9,0.9,2.1,1.4,3.4,1.4c1.3,0,2.5-0.5,3.4-1.4C38.5,33.1,39,31.9,39,30.6 M19.9,9.2
		c-0.2-1.7-1-3.2-2.1-4.3c-1.1-1.1-2.6-1.9-4.3-2.1c0.2,1.7,1,3.2,2.1,4.3C16.8,8.2,18.2,9,19.9,9.2z M12.7,1.1c2.5,0,4.7,1,6.4,2.6
		c1.6,1.6,2.5,3.7,2.6,6c0.6,0.7,1,1.5,1.1,2.4c0.1,0.5,0.1,1,0,1.6c0.3-0.1,0.5-0.2,0.7-0.4c0.6-0.4,1-0.9,1.2-1.6
		c0.1-0.2,0.2-0.4,0.4-0.5c0.5-0.2,0.9-0.4,1.4-0.5c0.5-0.1,1-0.2,1.6-0.2c1.8,0,3.4,0.7,4.6,1.8c1,1,1.8,2.3,2,3.7
		c1.6,0.2,2.9,0.9,4,1.9c1.2,1.2,2,2.9,2,4.7c0,0.9-0.2,1.7-0.5,2.5c-0.2,0.6-0.5,1.1-0.9,1.5c0.8,1.1,1.3,2.4,1.3,3.8
		c0,1.8-0.7,3.4-1.9,4.6C37.6,36.3,36,37,34.2,37c-1.8,0-3.4-0.7-4.6-1.9c-1.2-1.2-1.9-2.8-1.9-4.6c0-1.8,0.7-3.4,1.9-4.6
		c1.2-1.2,2.8-1.9,4.6-1.9c1.5,0,2.9,0.5,4,1.4c0.2-0.3,0.4-0.6,0.5-0.9c0.2-0.6,0.3-1.2,0.3-1.8c0-1.4-0.6-2.6-1.5-3.6
		c-0.9-0.9-2.2-1.5-3.6-1.5c-0.5,0-0.8-0.4-0.8-0.8c-0.1-1.3-0.7-2.5-1.6-3.3c-0.9-0.8-2.1-1.4-3.4-1.4c-0.4,0-0.8,0-1.2,0.1
		c-0.3,0.1-0.6,0.2-0.8,0.3c-0.4,0.8-1,1.6-1.7,2.1c-0.8,0.6-1.8,0.9-2.9,0.9c-1.1,0-2.1-0.3-2.9-0.9c-0.7-0.5-1.3-1.2-1.7-2.1
		c-0.3-0.1-0.5-0.2-0.8-0.3c-0.4-0.1-0.8-0.1-1.2-0.1c-1.3,0-2.5,0.5-3.4,1.4c-0.9,0.8-1.5,2-1.6,3.3c0,0.5-0.4,0.8-0.8,0.8
		c-1.4,0-2.6,0.6-3.6,1.5c-0.9,0.9-1.5,2.2-1.5,3.6c0,0.7,0.1,1.3,0.3,1.8c0.2,0.6,0.6,1.1,1,1.6c0.3,0.3,0.3,0.8,0,1.1
		c-0.4,0.4-0.7,1-0.9,1.5c-0.2,0.5-0.3,1.1-0.3,1.7c0,0.8,0.2,1.5,0.5,2.1c0.3,0.7,0.7,1.2,1.3,1.7c0.3,0.2,0.5,0.7,0.3,1
		c-0.2,0.6-0.3,1.2-0.2,1.8c0.1,0.6,0.4,1.1,0.8,1.6c0.3,0.3,0.7,0.6,1.2,0.7c0.4,0.1,0.9,0.2,1.4,0.1c0.5-0.1,0.9,0.3,1,0.7
		c0,0,0,0.1,0,0.1c0.1,1.2,0.6,2.2,1.4,3c0.8,0.8,1.9,1.2,3.1,1.2c0.2,0,0.4,0,0.7,0c0.2,0,0.4-0.1,0.6-0.1c0.4-0.1,0.8,0.1,1,0.4
		c0.4,0.8,1.1,1.4,1.8,1.8c0.7,0.4,1.6,0.7,2.5,0.7c0.9,0,1.8-0.2,2.5-0.7c0.8-0.4,1.4-1.1,1.8-1.8c0.2-0.4,0.6-0.5,1-0.4
		c0.2,0.1,0.4,0.1,0.6,0.1c0.2,0,0.4,0,0.7,0c1.2,0,2.3-0.5,3.1-1.2c0.8-0.8,1.3-1.8,1.4-3c0-0.5,0.4-0.8,0.9-0.8
		c0.5,0,0.8,0.4,0.8,0.9c-0.1,1.6-0.8,3.1-2,4.1c-1.1,1-2.6,1.7-4.2,1.7c-0.3,0-0.6,0-0.9-0.1c-0.1,0-0.2,0-0.3,0
		c-0.6,0.8-1.3,1.5-2.1,1.9c-1,0.6-2.1,0.9-3.4,0.9c-1.2,0-2.4-0.3-3.4-0.9c-0.8-0.5-1.6-1.2-2.1-1.9c-0.1,0-0.2,0-0.3,0
		c-0.3,0-0.6,0.1-0.9,0.1c-1.6,0-3.1-0.6-4.2-1.7c-0.9-0.9-1.6-2-1.8-3.3c-0.4,0-0.9-0.1-1.3-0.2c-0.7-0.2-1.3-0.6-1.8-1.1
		c-0.7-0.7-1.1-1.5-1.3-2.4c-0.1-0.7-0.1-1.5,0.1-2.2c-0.6-0.6-1-1.2-1.3-1.9c-0.4-0.9-0.6-1.8-0.6-2.8c0-0.8,0.1-1.6,0.4-2.3
		c0.2-0.5,0.5-1,0.8-1.5c-0.4-0.5-0.7-1-0.9-1.6c-0.3-0.8-0.5-1.6-0.5-2.5c0-1.9,0.8-3.5,2-4.7c1-1,2.4-1.8,4-1.9
		c0.3-1.5,1-2.7,2-3.7c1.2-1.1,2.8-1.8,4.6-1.8c0.5,0,1.1,0.1,1.6,0.2c0.5,0.1,1,0.3,1.4,0.5c0.2,0.1,0.4,0.3,0.4,0.5
		c0.2,0.6,0.7,1.2,1.2,1.6c0.4,0.3,0.8,0.5,1.3,0.6c0.1-0.5,0.2-1,0.1-1.5c-0.1-0.5-0.3-1.1-0.7-1.5c-2.3-0.1-4.4-1.1-6-2.6
		c-1.6-1.6-2.6-3.9-2.6-6.4C11.8,1.4,12.2,1.1,12.7,1.1L12.7,1.1z"/>
</g>
</svg>
