<?xml version="1.0" encoding="UTF-8"?>
<svg id="Layer_2" data-name="Layer 2" xmlns="http://www.w3.org/2000/svg" viewBox="0 0 140.2 47.7">
  <defs>
    <style>
      .cls-1, .cls-2 {
        fill: #a9508a;
      }

      .cls-2 {
        fill-rule: evenodd;
      }
    </style>
  </defs>
  <g id="Layer_1-2" data-name="Layer 1">
    <g>
      <path class="cls-2" d="M93.1,45.7c-.9,0-1.5-.3-2-.8-.1-.1-.3-.2-.5-.2-.3,0-.6,.3-.6,.6,0,.6,1.1,1.6,3.1,1.6,1.7,0,3.2-.9,3.2-2.3,0-2.7-4.9-1.9-4.9-3.4,0-.4,.5-.9,1.6-.9,.8,0,1.4,.4,1.7,.7,.2,.2,.3,.3,.6,.3,.4,0,.7-.3,.7-.6,0-.6-1-1.6-2.9-1.6-1.8,0-3,1-3,2.2,0,2.8,4.8,1.8,4.8,3.4,0,.6-.7,1-1.8,1m-4.9-2.9c0-2.2-1.6-3.7-3.5-3.7-1.1,0-2,.4-2.8,1.5-.8-1-1.8-1.5-2.8-1.5-2,0-3.6,1.5-3.6,3.7v3.4c0,.4,.3,.7,.7,.7s.7-.3,.7-.7v-3.6c0-1.4,1-2.3,2.1-2.3,1.2,0,2.1,.9,2.1,2.3v3.6c0,.4,.3,.7,.7,.7s.7-.3,.7-.7v-3.6c0-1.4,1-2.3,2.1-2.3,1.2,0,2.1,.9,2.1,2.3v3.6c0,.4,.3,.7,.7,.7s.7-.3,.7-.7v-3.4h.1Zm-24.7,3.9c.1,.1,.3,.2,.5,.2,.4,0,.7-.3,.7-.7,0-.2-.1-.3-.2-.4l-2.5-2.9,2.4-2.8c.1-.1,.2-.2,.2-.4,0-.3-.3-.7-.7-.7-.2,0-.4,.1-.5,.2l-2.2,2.7-2.2-2.7c-.1-.1-.3-.2-.5-.2-.4,0-.7,.3-.7,.7,0,.2,.1,.3,.2,.4l2.4,2.8-2.5,2.9c-.1,.1-.2,.3-.2,.4,0,.3,.3,.7,.7,.7,.2,0,.4-.1,.5-.2l2.3-2.8,2.3,2.8Zm-10.5-6.5c1.3,0,2.3,1.1,2.4,2.2h-4.9c.1-1.2,1.2-2.2,2.5-2.2Zm2.9,3.4c.5,0,.9-.5,.9-.9,0-1.8-1.6-3.6-3.7-3.6s-3.9,1.7-3.9,3.9,1.7,4,4,4c1.3,0,2.3-.5,2.6-.7,.1-.1,.3-.3,.3-.6s-.3-.6-.6-.6c-.2,0-.3,0-.4,.1-.4,.2-1.1,.6-1.9,.6-1.3,0-2.4-.8-2.6-2.1h5.3v-.1Zm17.5-.8c0-.1,0,.1,0,.2,0-2.2-1.8-3.9-4-3.9s-3.9,1.7-3.9,3.9,1.7,3.9,3.9,3.9c1,0,1.8-.3,2.5-.9v.2c0,.4,.4,.7,.7,.7,.4,0,.7-.3,.7-.7v-3.4h.1Zm-1.4,.2c0,1.4-1.1,2.7-2.6,2.7s-2.6-1.3-2.6-2.7,1.2-2.7,2.6-2.7c1.5,0,2.6,1.2,2.6,2.7Z"/>
      <path class="cls-2" d="M140.2,29.2v.3c0-3.6-2.9-6.5-6.6-6.5s-6.6,2.9-6.6,6.5,2.8,6.6,6.6,6.6c1.6,0,3-.6,4.2-1.5v5.5c0,.7,.6,1.2,1.2,1.2,.7,0,1.2-.5,1.2-1.2v-10.9h0Zm-2.3,.3c0,2.4-1.9,4.5-4.3,4.5s-4.4-2.1-4.4-4.5,1.9-4.4,4.4-4.4c2.4,0,4.3,2.1,4.3,4.4Zm-68.3-.5c0-3.6-2.5-6-5.7-6-1.7,0-3.2,.7-4.5,2.3-1.3-1.7-2.9-2.3-4.5-2.3-3.2,0-5.8,2.4-5.8,6v5.5c0,.6,.5,1.2,1.2,1.2,.6,0,1.2-.6,1.2-1.2v-5.8c0-2.3,1.5-3.7,3.4-3.7s3.4,1.4,3.4,3.7v5.8c0,.6,.5,1.2,1.2,1.2,.6,0,1.1-.6,1.1-1.2v-5.8c0-2.3,1.5-3.7,3.4-3.7s3.4,1.4,3.4,3.7v5.8c0,.6,.6,1.2,1.2,1.2s1.1-.6,1.1-1.2v-5.5h-.1Zm15.4,.3c0-3.5-2.9-6.3-6.4-6.3s-6.4,2.8-6.4,6.3,2.8,6.4,6.4,6.4,6.4-2.9,6.4-6.4Zm-2.2,0c0,2.3-1.8,4.4-4.2,4.4s-4.2-2-4.2-4.4,1.9-4.3,4.2-4.3c2.4,.1,4.2,2,4.2,4.3Zm7.2-1.1c0-1.7,1.2-3.1,2.9-3.1,.9,0,1.5,.4,1.9,.7,.2,.2,.5,.2,.8,.2,.5,0,1-.5,1-1.1,0-.3-.1-.6-.4-.9-.6-.5-1.8-1.1-3.1-1.1-3.3,0-5.4,2.3-5.4,5.5v6c0,.6,.5,1.2,1.2,1.2,.6,0,1.2-.6,1.2-1.2v-6.2h-.1Zm19.9,1.1c0-3.5-2.9-6.3-6.4-6.3s-6.4,2.8-6.4,6.3,2.8,6.4,6.4,6.4,6.4-2.9,6.4-6.4Zm-2.2,0c0,2.3-1.8,4.4-4.2,4.4s-4.2-2-4.2-4.4,1.9-4.3,4.2-4.3c2.4,.1,4.2,2,4.2,4.3Zm17.1,0c0-3.5-2.9-6.3-6.4-6.3s-6.4,2.8-6.4,6.3,2.8,6.4,6.4,6.4,6.4-2.9,6.4-6.4Zm-2.2,0c0,2.3-1.8,4.4-4.2,4.4s-4.2-2-4.2-4.4,1.9-4.3,4.2-4.3c2.4,.1,4.2,2,4.2,4.3Z"/>
      <path class="cls-1" d="M36.7,29.5c0-1.3-.5-2.5-1.4-3.4s-2.1-1.4-3.4-1.4-2.5,.5-3.4,1.4-1.4,2.1-1.4,3.4,.5,2.5,1.4,3.4,2.1,1.4,3.4,1.4,2.5-.5,3.4-1.4,1.4-2.1,1.4-3.4M17.6,8.1c-.2-1.7-1-3.2-2.1-4.3-1.1-1.1-2.6-1.9-4.3-2.1,.2,1.7,1,3.2,2.1,4.3,1.2,1.1,2.6,1.9,4.3,2.1ZM10.4,0c2.5,0,4.7,1,6.4,2.6,1.6,1.6,2.5,3.7,2.6,6,.6,.7,1,1.5,1.1,2.4,.1,.5,.1,1,0,1.6,.3-.1,.5-.2,.7-.4,.6-.4,1-.9,1.2-1.6,.1-.2,.2-.4,.4-.5,.5-.2,.9-.4,1.4-.5s1-.2,1.6-.2c1.8,0,3.4,.7,4.6,1.8,1,1,1.8,2.3,2,3.7,1.6,.2,2.9,.9,4,1.9,1.2,1.2,2,2.9,2,4.7,0,.9-.2,1.7-.5,2.5-.2,.6-.5,1.1-.9,1.5,.8,1.1,1.3,2.4,1.3,3.8,0,1.8-.7,3.4-1.9,4.6-1.1,1.3-2.7,2-4.5,2s-3.4-.7-4.6-1.9-1.9-2.8-1.9-4.6,.7-3.4,1.9-4.6c1.2-1.2,2.8-1.9,4.6-1.9,1.5,0,2.9,.5,4,1.4,.2-.3,.4-.6,.5-.9,.2-.6,.3-1.2,.3-1.8,0-1.4-.6-2.6-1.5-3.6-.9-.9-2.2-1.5-3.6-1.5-.5,0-.8-.4-.8-.8-.1-1.3-.7-2.5-1.6-3.3s-2.1-1.4-3.4-1.4c-.4,0-.8,0-1.2,.1-.3,.1-.6,.2-.8,.3-.4,.8-1,1.6-1.7,2.1-.8,.6-1.8,.9-2.9,.9s-2.1-.3-2.9-.9c-.7-.5-1.3-1.2-1.7-2.1-.3-.1-.5-.2-.8-.3-.4-.1-.8-.1-1.2-.1-1.3,0-2.5,.5-3.4,1.4-.9,.8-1.5,2-1.6,3.3,0,.5-.4,.8-.8,.8-1.4,0-2.6,.6-3.6,1.5-.9,.9-1.5,2.2-1.5,3.6,0,.7,.1,1.3,.3,1.8,.2,.6,.6,1.1,1,1.6,.3,.3,.3,.8,0,1.1-.4,.4-.7,1-.9,1.5-.2,.5-.3,1.1-.3,1.7,0,.8,.2,1.5,.5,2.1,.3,.7,.7,1.2,1.3,1.7,.3,.2,.5,.7,.3,1-.2,.6-.3,1.2-.2,1.8,.1,.6,.4,1.1,.8,1.6,.3,.3,.7,.6,1.2,.7,.4,.1,.9,.2,1.4,.1,.5-.1,.9,.3,1,.7v.1c.1,1.2,.6,2.2,1.4,3,.8,.8,1.9,1.2,3.1,1.2h.7c.2,0,.4-.1,.6-.1,.4-.1,.8,.1,1,.4,.4,.8,1.1,1.4,1.8,1.8,.7,.4,1.6,.7,2.5,.7s1.8-.2,2.5-.7c.8-.4,1.4-1.1,1.8-1.8,.2-.4,.6-.5,1-.4,.2,.1,.4,.1,.6,.1h.7c1.2,0,2.3-.5,3.1-1.2,.8-.8,1.3-1.8,1.4-3,0-.5,.4-.8,.9-.8s.8,.4,.8,.9c-.1,1.6-.8,3.1-2,4.1-1.1,1-2.6,1.7-4.2,1.7-.3,0-.6,0-.9-.1h-.3c-.6,.8-1.3,1.5-2.1,1.9-1,.6-2.1,.9-3.4,.9-1.2,0-2.4-.3-3.4-.9-.8-.5-1.6-1.2-2.1-1.9h-.3c-.3,0-.6,.1-.9,.1-1.6,0-3.1-.6-4.2-1.7-.9-.9-1.6-2-1.8-3.3-.4,0-.9-.1-1.3-.2-.7-.2-1.3-.6-1.8-1.1-.7-.7-1.1-1.5-1.3-2.4-.1-.7-.1-1.5,.1-2.2-.6-.6-1-1.2-1.3-1.9-.4-.9-.6-1.8-.6-2.8,0-.8,.1-1.6,.4-2.3,.2-.5,.5-1,.8-1.5-.4-.5-.7-1-.9-1.6-.3-.8-.5-1.6-.5-2.5,0-1.9,.8-3.5,2-4.7,1-1,2.4-1.8,4-1.9,.3-1.5,1-2.7,2-3.7,1.2-1.1,2.8-1.8,4.6-1.8,.5,0,1.1,.1,1.6,.2,.5,.1,1,.3,1.4,.5,.2,.1,.4,.3,.4,.5,.2,.6,.7,1.2,1.2,1.6,.4,.3,.8,.5,1.3,.6,.1-.5,.2-1,.1-1.5s-.3-1.1-.7-1.5c-2.3-.1-4.4-1.1-6-2.6-1.6-1.6-2.6-3.9-2.6-6.4,.2-.5,.6-.8,1.1-.8h0Z"/>
    </g>
  </g>
</svg>